<svg width="22" height="22" viewBox="0 0 22 22" fill="none" xmlns="http://www.w3.org/2000/svg">
<path d="M11.0422 0.736572C5.35111 0.736572 0.736938 5.35074 0.736938 11.0418C0.736938 16.7329 5.35111 21.3471 11.0422 21.3471C16.7333 21.3471 21.3475 16.7329 21.3475 11.0418C21.3475 5.35074 16.7333 0.736572 11.0422 0.736572ZM15.7598 15.6166C15.633 15.8271 15.409 15.944 15.1801 15.944C15.0607 15.944 14.9401 15.9132 14.8317 15.8468C10.7727 13.4061 5.9628 14.8178 5.9148 14.8326C5.55665 14.9409 5.1788 14.7391 5.07049 14.3822C4.96218 14.024 5.1628 13.6461 5.51972 13.5378C5.7388 13.4701 10.9437 11.9292 15.5296 14.6874C15.8496 14.8794 15.953 15.2954 15.7598 15.6166ZM17.0398 12.7637C16.8921 13.0209 16.6225 13.1649 16.3456 13.1649C16.2102 13.1649 16.0736 13.1305 15.9481 13.0578C10.8502 10.1261 5.71418 11.8332 5.66249 11.8505C5.24526 11.9945 4.78987 11.7717 4.64587 11.3532C4.5031 10.936 4.72587 10.4806 5.14311 10.3378C5.38064 10.2566 11.025 8.38213 16.7456 11.6708C17.1284 11.8911 17.2601 12.3809 17.0398 12.7637ZM17.6121 10.0117C17.4582 10.0117 17.3019 9.97475 17.1554 9.89845C11.2785 6.81167 5.2428 8.65906 5.18249 8.67875C4.6631 8.84244 4.11049 8.55444 3.94679 8.03629C3.7831 7.5169 4.0711 6.96428 4.58926 6.80059C4.86741 6.71321 11.4754 4.69105 18.0711 8.15444C18.5524 8.40798 18.7382 9.00244 18.4847 9.48368C18.3087 9.81968 17.9665 10.0117 17.6121 10.0117Z" fill="#AEAEAE"/>
</svg>
